<svg width="18.000000" height="18.000000" viewBox="0 0 18 18" fill="none" xmlns="http://www.w3.org/2000/svg" xmlns:xlink="http://www.w3.org/1999/xlink">
	<desc>
			Created with Pixso.
	</desc>
	<defs>
		<clipPath id="clip2_26">
			<rect id="Instagram" rx="0.000000" width="17.000000" height="17.000000" transform="translate(0.500000 0.500000)" fill="white" fill-opacity="0"/>
		</clipPath>
	</defs>
	<g clip-path="url(#clip2_26)">
		<path id="Union" d="M5.28906 0.0543213C6.24902 0.010376 6.55566 0 9 0C11.4443 0 11.751 0.010376 12.7109 0.0543213C13.6685 0.0979004 14.3228 0.250122 14.896 0.47229C15.4878 0.702393 15.9893 1.01001 16.4897 1.5105C16.9902 2.01062 17.2979 2.51257 17.5278 3.10461C17.7505 3.67688 17.9028 4.33142 17.9463 5.28918C17.9902 6.24915 18.0005 6.55566 18.0005 9C18.0005 11.4443 17.9902 11.7509 17.9463 12.7108C17.9028 13.6686 17.7505 14.3231 17.5278 14.8955C17.2979 15.4874 16.9902 15.989 16.4897 16.4895C15.9897 16.9901 15.4878 17.2976 14.896 17.5277C14.3232 17.7502 13.6689 17.9025 12.7109 17.946C11.7515 17.99 11.4448 18.0004 9.00049 18.0004C6.55615 18.0004 6.24951 17.99 5.28955 17.946C4.33154 17.9025 3.67725 17.7502 3.10498 17.5277C2.51318 17.2976 2.01123 16.9901 1.51074 16.4895C1.01025 15.9894 0.702637 15.4874 0.472656 14.8955C0.25 14.3228 0.0976562 13.6686 0.0541992 12.7108C0.0102539 11.7509 0 11.4443 0 9C0 6.55566 0.0102539 6.24915 0.0541992 5.28918C0.0976562 4.33142 0.25 3.67725 0.472656 3.10461C0.702148 2.51294 1.01025 2.01099 1.51025 1.51086C2.01074 1.01038 2.5127 0.702759 3.10449 0.472656C3.67725 0.250122 4.33154 0.0979004 5.28906 0.0543213ZM12.6367 1.67407C11.6875 1.63086 11.4033 1.62158 9 1.62158C6.59668 1.62158 6.3125 1.63086 5.36328 1.67407C4.48584 1.71411 4.00928 1.8606 3.69189 1.98389C3.27197 2.14673 2.97217 2.3418 2.65674 2.65686C2.34229 2.97205 2.14697 3.27173 1.98389 3.69189C1.86035 4.00916 1.71436 4.48572 1.67432 5.36316C1.63086 6.31238 1.62158 6.5968 1.62158 9C1.62158 11.4033 1.63086 11.688 1.67432 12.6368C1.71436 13.5143 1.86035 13.9908 1.98389 14.3081C2.14697 14.7283 2.3418 15.028 2.65674 15.3431C2.97217 15.6578 3.27197 15.8529 3.69189 16.0161C4.00928 16.1394 4.48584 16.2859 5.36328 16.3259C6.31201 16.3691 6.59668 16.3784 9 16.3784C11.4033 16.3784 11.688 16.3691 12.6367 16.3259C13.5142 16.2859 13.9907 16.1394 14.3081 16.0161C14.728 15.8533 15.0278 15.6582 15.3433 15.3431C15.6577 15.028 15.853 14.7283 16.0161 14.3081C16.1396 13.9908 16.2856 13.5143 16.3257 12.6368C16.3691 11.6876 16.3784 11.4033 16.3784 9C16.3784 6.5968 16.3691 6.31201 16.3257 5.36316C16.2856 4.48572 16.1396 4.00916 16.0161 3.69189C15.853 3.27173 15.6582 2.97205 15.3433 2.65686C15.0278 2.34216 14.728 2.14709 14.3081 1.98389C13.9907 1.8606 13.5142 1.71411 12.6367 1.67407ZM13.8042 5.27551C14.4009 5.27551 14.8843 4.79199 14.8843 4.19556C14.8843 3.59912 14.4009 3.1156 13.8042 3.1156C13.208 3.1156 12.7246 3.59912 12.7246 4.19556C12.7246 4.79199 13.208 5.27551 13.8042 5.27551ZM9.00049 4.37854C6.44775 4.37854 4.37891 6.44775 4.37891 9C4.37891 11.5522 6.44824 13.6215 9.00049 13.6215C11.5527 13.6215 13.6216 11.5522 13.6216 9C13.6216 6.44775 11.5527 4.37854 9.00049 4.37854ZM9.00049 11.9999C7.34326 11.9999 6.00049 10.6565 6.00049 9C6.00049 7.34302 7.34375 6.00012 9.00049 6.00012C10.6567 6.00012 12 7.34338 12 9C12 10.6569 10.6572 11.9999 9.00049 11.9999Z" clip-rule="evenodd" fill="#262626" fill-opacity="1.000000" fill-rule="evenodd"/>
	</g>
</svg>
